<svg viewBox="0 0 300 300" xmlns="http://www.w3.org/2000/svg"> <ellipse cx="150" cy="230" rx="120" ry="15" fill="#700000" stroke="#700000" stroke-width="1.5"/><rect x="60" y="170" width="180" height="60" rx="10" ry="10" fill="#44d385" stroke="#44d385" stroke-width="1"/><rect x="85" y="120" width="130" height="50" rx="10" ry="10" fill="#cb4b7a" stroke="#cb4b7a" stroke-width="1"/><ellipse cx="150" cy="120" rx="65" ry="10" fill="#a09770" stroke="#a09770" stroke-width="0.5"/><rect x="146" y="85" width="8" height="35" fill="#a2cdf3" stroke="#a2cdf3" stroke-width="0.5"/><path d="M150,85 Q150,75 150,85 M146,85 Q150,75 154,85" fill="#ffdd55" stroke="#ffcc00" stroke-width="1"/><circle cx="115" cy="145" r="5" fill="#c9562c"/><circle cx="150" cy="145" r="5" fill="#c9562c"/><circle cx="185" cy="145" r="5" fill="#c9562c"/><path d="M70,170 C90,160 110,180 130,170 C150,160 170,180 190,170 C210,160 230,180 250,170" fill="none" stroke="#c0dc3e" stroke-width="3" stroke-linecap="round"/></svg>